<svg width="106" height="104" viewBox="0 0 106 104" fill="none" xmlns="http://www.w3.org/2000/svg">
<path d="M56.999 32.5893C60.9094 32.5893 69.3267 -1.87391 85.999 3.58899C101.851 8.78295 70.2946 41.5893 74.0191 41.5893C77.7436 41.5893 101.187 40.2648 102.92 52.0935C104.855 65.304 70.7535 57.9096 69.7376 59.6041C68.7216 61.2986 83.127 81.3625 74.0191 87.5007C64.5834 93.8598 52.5636 81.0893 50.499 81.0893C48.4345 81.0893 37.7356 108.875 29.0627 98.2301C22.0142 89.5794 32.394 73.5893 29.0627 73.5893C25.7314 73.5893 7.30039 72.2887 3.37333 59.6041C-1.42601 44.1019 41.4648 55.1718 44.0482 52.0935C46.6315 49.0152 23.3741 24.3058 35.485 17.7593C47.4431 11.2954 53.0886 32.5893 56.999 32.5893Z" stroke="#F2E8D8" stroke-width="6" stroke-linecap="round"/>
</svg>
