<svg width="106" height="107" viewBox="0 0 106 107" fill="none" xmlns="http://www.w3.org/2000/svg">
<path d="M60.104 46.3479C64.0145 46.3479 57.3468 -2.03279 74.0191 3.43011C89.8707 8.62407 67.7058 46.3479 71.4303 46.3479C75.1548 46.3479 101.187 44.1757 102.92 56.0044C104.855 69.2149 70.7535 61.8205 69.7376 63.515C68.7216 65.2095 83.127 85.2734 74.0191 91.4116C64.5834 97.7707 52.5351 74.2445 50.4705 74.2445C48.406 74.2445 37.7356 112.785 29.0627 102.141C22.0142 93.4903 38.8164 74.2445 35.4851 74.2445C32.1537 74.2445 7.3004 76.1996 3.37334 63.515C-1.42599 48.0128 41.4648 59.0827 44.0482 56.0044C46.6315 52.9261 23.3741 28.2167 35.4851 21.6702C47.4431 15.2063 56.1936 46.3479 60.104 46.3479Z" stroke="#D01A31" stroke-width="6" stroke-linecap="round"/>
</svg>
