<svg width="156" height="59" viewBox="0 0 156 59" fill="none" xmlns="http://www.w3.org/2000/svg">
<path d="M4.00098 20.6463C4.00098 20.6463 5.39941 17.9771 22.4272 15.0429C39.7347 12.0606 63.8757 21.7421 61.927 39.2676C60.8787 48.6951 55.8555 55.0376 46.4092 54.9922C36.9947 54.9471 30.9265 48.5337 29.0575 39.2676C25.0562 19.4289 50.3757 4.1722 70.5323 4.13478C90.7294 4.09728 116.639 19.4009 112.571 39.2676C110.669 48.5594 104.803 55.2687 95.3607 54.9922C86.1052 54.7212 79.6989 48.4099 78.009 39.2676C74.4037 19.7625 98.4037 2.28839 118.073 4.13478C130.916 5.34036 158.887 15.0429 150.439 39.2676" stroke="#F2E8D8" stroke-width="8" stroke-linecap="round"/>
</svg>
