<svg width="72" height="92" viewBox="0 0 72 92" fill="none" xmlns="http://www.w3.org/2000/svg">
<path d="M26.1275 3.36133C24.8603 16.1297 18.4606 41.6663 3 41.6663" stroke="#F2E8D8" stroke-width="6" stroke-linecap="round"/>
<path d="M26.128 69.4912C27.5734 59.132 34.8731 38.4136 52.5078 38.4136" stroke="#F2E8D8" stroke-width="6" stroke-linecap="round"/>
<path d="M26.128 3C27.5734 14.8047 34.8731 38.4141 52.5078 38.4141" stroke="#F2E8D8" stroke-width="6" stroke-linecap="round"/>
<path d="M26.1275 69.4912C24.8603 60.2161 18.4606 41.6659 3 41.6659" stroke="#F2E8D8" stroke-width="6" stroke-linecap="round"/>
<path d="M54.4903 50.1475C55.2348 57.6491 58.9947 72.6524 68.0781 72.6524" stroke="#D01A31" stroke-width="6" stroke-linecap="round"/>
<path d="M54.4928 89C53.6435 82.9138 49.3549 70.7413 38.9941 70.7413" stroke="#D01A31" stroke-width="6" stroke-linecap="round"/>
<path d="M54.4928 49.9346C53.6435 56.87 49.3549 70.741 38.9941 70.741" stroke="#D01A31" stroke-width="6" stroke-linecap="round"/>
<path d="M54.4903 89C55.2348 83.5507 58.9947 72.6521 68.0781 72.6521" stroke="#D01A31" stroke-width="6" stroke-linecap="round"/>
</svg>
