<svg width="164" height="61" viewBox="0 0 164 61" fill="none" xmlns="http://www.w3.org/2000/svg">
<path d="M4 34.7695C4 34.7695 14.6097 18.5252 32.3236 15.476C50.3285 12.3767 75.4421 22.4379 73.4149 40.6506C72.3243 50.4479 67.0988 57.039 57.2719 56.9919C47.478 56.945 41.1653 50.2801 39.2211 40.6506C35.0585 20.034 61.3982 4.17894 82.3669 4.14004C103.378 4.10107 130.331 20.0048 126.1 40.6506C124.121 50.3068 118.018 57.2793 108.196 56.9919C98.5672 56.7103 91.9028 50.1514 90.1449 40.6506C86.3943 20.3806 111.361 2.22125 131.823 4.14004C145.184 5.3929 154.22 11.7193 160 23.8675" stroke="#D01A31" stroke-width="8" stroke-linecap="round"/>
</svg>
