<svg width="72" height="92" viewBox="0 0 72 92" fill="none" xmlns="http://www.w3.org/2000/svg">
<path d="M29.3803 3.36133C30.6475 16.1297 37.0472 41.6663 52.5078 41.6663" stroke="#D01A31" stroke-width="6" stroke-linecap="round"/>
<path d="M29.3798 69.4912C27.9344 59.132 20.6347 38.4136 3 38.4136" stroke="#D01A31" stroke-width="6" stroke-linecap="round"/>
<path d="M29.3799 3C27.9344 14.8047 20.6347 38.4141 3 38.4141" stroke="#D01A31" stroke-width="6" stroke-linecap="round"/>
<path d="M29.3803 69.4912C30.6475 60.2161 37.0472 41.6659 52.5078 41.6659" stroke="#D01A31" stroke-width="6" stroke-linecap="round"/>
<path d="M52.58 50.1475C51.8355 57.6491 48.0756 72.6524 38.9922 72.6524" stroke="#F2E8D8" stroke-width="6" stroke-linecap="round"/>
<path d="M52.5775 89C53.4268 82.9138 57.7154 70.7413 68.0762 70.7413" stroke="#F2E8D8" stroke-width="6" stroke-linecap="round"/>
<path d="M52.5775 49.9346C53.4268 56.87 57.7154 70.741 68.0762 70.741" stroke="#F2E8D8" stroke-width="6" stroke-linecap="round"/>
<path d="M52.58 89C51.8355 83.5507 48.0756 72.6521 38.9922 72.6521" stroke="#F2E8D8" stroke-width="6" stroke-linecap="round"/>
</svg>
