<svg width="83" height="104" viewBox="0 0 83 104" fill="none" xmlns="http://www.w3.org/2000/svg">
<path d="M33.6364 2.5028C36.4493 2.21435 43.0846 24.2814 45.0322 24.2814C46.9798 24.2814 61.9094 22.2622 62.4864 24.2814C63.0634 26.3006 45.0322 39.2812 45.0322 41.1562C45.0322 43.0311 49.2154 61.0597 47.9893 62.4299C46.7632 63.8001 35.0068 44.6176 33.6364 44.9782C32.266 45.3388 14.5233 63.4395 13.4414 62.4299C12.3595 61.4203 23.2504 43.1754 23.2504 41.1562C23.2504 39.1369 3.70452 25.8679 2.55053 24.2814C1.39653 22.6948 20.3654 24.2814 23.2504 24.2814C26.1354 24.2814 30.8235 2.79126 33.6364 2.5028Z" stroke="#D01A31" stroke-width="5" stroke-linecap="round"/>
<path d="M63.1819 65.5017C64.8696 65.3286 68.8507 78.5688 70.0193 78.5688C71.1879 78.5688 80.1457 77.3573 80.4919 78.5688C80.8381 79.7803 70.0193 87.5687 70.0193 88.6937C70.0193 89.8187 72.5293 100.636 71.7936 101.458C71.0579 102.28 64.0041 90.7706 63.1819 90.9869C62.3596 91.2033 51.714 102.064 51.0648 101.458C50.4157 100.852 56.9502 89.9052 56.9502 88.6937C56.9502 87.4822 45.2227 79.5207 44.5303 78.5688C43.8379 77.6169 55.2192 78.5688 56.9502 78.5688C58.6812 78.5688 61.4941 65.6748 63.1819 65.5017Z" stroke="#D01A31" stroke-width="5" stroke-linecap="round"/>
</svg>
