<svg width="83" height="104" viewBox="0 0 83 104" fill="none" xmlns="http://www.w3.org/2000/svg">
<path d="M31.3636 2.5028C28.5507 2.21435 21.9154 24.2814 19.9678 24.2814C18.0202 24.2814 3.09056 22.2622 2.51356 24.2814C1.93656 26.3006 19.9678 39.2812 19.9678 41.1562C19.9678 43.0311 15.7846 61.0597 17.0107 62.4299C18.2368 63.8001 29.9932 44.6176 31.3636 44.9782C32.734 45.3388 50.4767 63.4395 51.5586 62.4299C52.6405 61.4203 41.7496 43.1754 41.7496 41.1562C41.7496 39.1369 61.2955 25.8679 62.4495 24.2814C63.6035 22.6948 44.6346 24.2814 41.7496 24.2814C38.8646 24.2814 34.1765 2.79126 31.3636 2.5028Z" stroke="#F2E8D8" stroke-width="5" stroke-linecap="round"/>
<path d="M63.1819 65.5017C64.8696 65.3286 68.8507 78.5688 70.0193 78.5688C71.1879 78.5688 80.1457 77.3573 80.4919 78.5688C80.8381 79.7803 70.0193 87.5687 70.0193 88.6937C70.0193 89.8187 72.5293 100.636 71.7936 101.458C71.0579 102.28 64.0041 90.7706 63.1819 90.9869C62.3596 91.2033 51.714 102.064 51.0648 101.458C50.4157 100.852 56.9502 89.9052 56.9502 88.6937C56.9502 87.4822 45.2227 79.5207 44.5303 78.5688C43.8379 77.6169 55.2192 78.5688 56.9502 78.5688C58.6812 78.5688 61.4941 65.6748 63.1819 65.5017Z" stroke="#F2E8D8" stroke-width="5" stroke-linecap="round"/>
</svg>
