<svg width="127" height="46" viewBox="0 0 127 46" fill="none" xmlns="http://www.w3.org/2000/svg">
<path d="M28.4189 3.00098C21.9634 14.3822 16.5756 21.9634 12.9272 27.0507C8.74483 32.7556 6.70925 35.6864 5.7668 37.1067C5.35827 37.8999 4.08415 39.5197 3.00012 41.4388" stroke="#D01A31" stroke-width="6" stroke-linecap="round"/>
<path d="M4.86313 5.48116C7.81306 9.78741 11.0074 15.3677 20.2891 30.7708C23.2725 35.7218 23.0914 36.0272 25.6095 40.0474C26.0376 40.7308 25.1428 39.3224 26.8817 42.3554" stroke="#D01A31" stroke-width="6" stroke-linecap="round"/>
<path d="M92.0967 3.21387C85.7981 14.3182 80.5415 21.7149 76.9818 26.6785C72.9012 32.2446 70.9151 35.1041 69.9956 36.4898C69.597 37.2638 68.3538 38.8442 67.2962 40.7165" stroke="#D01A31" stroke-width="6" stroke-linecap="round"/>
<path d="M69.1039 5.63382C71.9821 9.8353 75.0988 15.2798 84.1547 30.3082C87.0655 35.1388 86.8888 35.4368 89.3457 39.3591C89.7634 40.0259 88.8903 38.6518 90.5869 41.611" stroke="#D01A31" stroke-width="6" stroke-linecap="round"/>
<path d="M58.8601 22.6394C58.907 28.4143 57.8444 32.5922 56.7484 34.5287C55.3681 36.9677 53.8371 39.1389 52.8625 40.2213C51.5414 41.6886 48.3923 42.3021 45.8677 42.0912C44.0205 41.9368 42.4246 40.3248 41.222 39.198C39.7228 37.7932 38.8724 36.0686 37.9358 33.6475C36.5933 30.1773 36.6461 27.4281 36.5278 25.4379C36.4211 23.6427 37.2688 18.378 37.8208 16.4444C38.3347 14.6446 38.7081 13.2026 39.3736 11.8027C40.0326 10.4163 41.2951 7.95526 42.5561 6.81195C44.0543 5.4537 47.6371 4.06725 49.5174 4.08311C51.5631 4.10037 53.2893 5.50873 55.1923 8.31236C56.0699 9.60537 56.6449 11.5803 57.2601 13.6264C57.6607 15.2223 58.5028 19.2117 58.8581 22.6393" stroke="#F2E8D8" stroke-width="6" stroke-linecap="round"/>
<path d="M123.166 22.8523C123.213 28.6272 122.15 32.8051 121.054 34.7416C119.674 37.1806 118.143 39.3518 117.168 40.4342C115.847 41.9015 112.698 42.515 110.173 42.3041C108.326 42.1497 106.73 40.5378 105.528 39.4109C104.028 38.0062 103.178 36.2815 102.241 33.8604C100.899 30.3902 100.952 27.641 100.834 25.6508C100.727 23.8556 101.575 18.5909 102.127 16.6573C102.64 14.8575 103.014 13.4155 103.679 12.0156C104.338 10.6292 105.601 8.16815 106.862 7.02485C108.36 5.66659 111.943 4.28014 113.823 4.296C115.869 4.31326 117.595 5.72161 119.498 8.52525C120.376 9.81826 120.951 11.7932 121.566 13.8393C121.966 15.4352 122.808 19.4246 123.164 22.8522" stroke="#F2E8D8" stroke-width="6" stroke-linecap="round"/>
</svg>
