<svg width="127" height="46" viewBox="0 0 127 46" fill="none" xmlns="http://www.w3.org/2000/svg">
<path d="M3.00098 3.00098C9.45654 14.3822 14.8443 21.9634 18.4927 27.0507C22.6751 32.7556 24.7107 35.6864 25.6531 37.1067C26.0617 37.8999 27.3358 39.5197 28.4198 41.4388" stroke="#F2E8D8" stroke-width="6" stroke-linecap="round"/>
<path d="M26.5568 5.48116C23.6069 9.78741 20.4125 15.3677 11.1308 30.7708C8.14739 35.7218 8.32857 36.0272 5.8104 40.0474C5.3823 40.7308 6.27715 39.3224 4.53826 42.3554" stroke="#F2E8D8" stroke-width="6" stroke-linecap="round"/>
<path d="M67.2998 3.21387C73.5983 14.3182 78.855 21.7149 82.4147 26.6785C86.4953 32.2446 88.4814 35.1041 89.4009 36.4898C89.7995 37.2638 91.0426 38.8442 92.1003 40.7165" stroke="#F2E8D8" stroke-width="6" stroke-linecap="round"/>
<path d="M90.2926 5.63382C87.4144 9.8353 84.2977 15.2798 75.2418 30.3082C72.3309 35.1388 72.5077 35.4368 70.0508 39.3591C69.6331 40.0259 70.5062 38.6518 68.8096 41.611" stroke="#F2E8D8" stroke-width="6" stroke-linecap="round"/>
<path d="M35.9915 22.6394C35.9445 28.4143 37.0071 32.5922 38.1031 34.5287C39.4835 36.9677 41.0144 39.1389 41.989 40.2213C43.3102 41.6886 46.4593 42.3021 48.9838 42.0912C50.831 41.9368 52.4269 40.3248 53.6295 39.198C55.1288 37.7932 55.9791 36.0686 56.9158 33.6475C58.2583 30.1773 58.2055 27.4281 58.3237 25.4379C58.4304 23.6427 57.5827 18.378 57.0307 16.4444C56.5169 14.6446 56.1435 13.2026 55.478 11.8027C54.8189 10.4163 53.5565 7.95526 52.2954 6.81195C50.7973 5.4537 47.2144 4.06725 45.3341 4.08311C43.2884 4.10037 41.5622 5.50873 39.6593 8.31236C38.7816 9.60537 38.2067 11.5803 37.5914 13.6264C37.1909 15.2223 36.3488 19.2117 35.9935 22.6393" stroke="#D01A31" stroke-width="6" stroke-linecap="round"/>
<path d="M100.297 22.8523C100.25 28.6272 101.313 32.8051 102.409 34.7416C103.789 37.1806 105.32 39.3518 106.295 40.4342C107.616 41.9015 110.765 42.515 113.29 42.3041C115.137 42.1497 116.733 40.5378 117.935 39.4109C119.434 38.0062 120.285 36.2815 121.221 33.8604C122.564 30.3902 122.511 27.641 122.629 25.6508C122.736 23.8556 121.888 18.5909 121.336 16.6573C120.823 14.8575 120.449 13.4155 119.784 12.0156C119.125 10.6292 117.862 8.16815 116.601 7.02485C115.103 5.66659 111.52 4.28014 109.64 4.296C107.594 4.31326 105.868 5.72161 103.965 8.52525C103.087 9.81826 102.512 11.7932 101.897 13.8393C101.496 15.4352 100.654 19.4246 100.299 22.8522" stroke="#D01A31" stroke-width="6" stroke-linecap="round"/>
</svg>
