<svg width="48" height="48" viewBox="0 0 48 48" fill="none" xmlns="http://www.w3.org/2000/svg">
<rect width="48" height="48" fill="#F2E8D8"/>
<rect x="13" y="14" width="22" height="20" stroke="#D01A31" stroke-width="2"/>
<path d="M27.1907 21.8789C28.0517 21.8789 28.7352 22.1689 29.2411 22.7489C29.7471 23.32 30.0001 24.0963 30.0001 25.0779V29.4547H27.3904V25.4259C27.3904 24.9975 27.2795 24.6629 27.0575 24.422C26.8356 24.1722 26.5383 24.0472 26.1655 24.0472C25.7749 24.0472 25.4687 24.1722 25.2467 24.422C25.0248 24.6629 24.9139 24.9975 24.9139 25.4259V29.4547H22.3042V21.9458H24.9139V23.0166C25.1447 22.6775 25.4553 22.4054 25.8459 22.2001C26.2365 21.986 26.6847 21.8789 27.1907 21.8789Z" fill="#D01A31"/>
<path d="M19.5312 21.2486C19.0695 21.2486 18.6967 21.1237 18.4126 20.8739C18.1374 20.6151 17.9998 20.2939 17.9998 19.9102C17.9998 19.5175 18.1374 19.1919 18.4126 18.9331C18.6967 18.6743 19.0695 18.5449 19.5312 18.5449C19.9839 18.5449 20.3479 18.6743 20.6231 18.9331C20.9072 19.1919 21.0492 19.5175 21.0492 19.9102C21.0492 20.2939 20.9072 20.6151 20.6231 20.8739C20.3479 21.1237 19.9839 21.2486 19.5312 21.2486ZM20.8229 21.9446V29.4535H18.2128V21.9446H20.8229Z" fill="#D01A31"/>
</svg>
